<svg xmlns="http://www.w3.org/2000/svg" xmlns:xlink="http://www.w3.org/1999/xlink" width="500" zoomAndPan="magnify" viewBox="0 0 375 374.999991" height="500" preserveAspectRatio="xMidYMid meet" version="1.0"><defs><g/><clipPath id="742d7d2844"><path d="M 134 112 L 240.976562 112 L 240.976562 215 L 134 215 Z M 134 112 " clip-rule="nonzero"/></clipPath></defs><path fill="#ffffff" d="M 164.632812 106.628906 C 166.613281 106.628906 168.222656 105.023438 168.222656 103.042969 L 168.222656 96.089844 C 168.222656 87.101562 175.542969 79.78125 184.558594 79.78125 C 193.578125 79.78125 200.898438 87.101562 200.898438 96.089844 L 200.898438 103.042969 C 200.898438 105.023438 202.507812 106.628906 204.488281 106.628906 C 206.472656 106.628906 208.078125 105.023438 208.078125 103.042969 L 208.078125 97.066406 C 208.078125 84.519531 198.660156 73.492188 186.109375 72.660156 C 172.472656 71.769531 161.042969 82.625 161.042969 96.089844 L 161.042969 103.042969 C 161.042969 105.023438 162.648438 106.628906 164.632812 106.628906 Z M 164.632812 106.628906 " fill-opacity="1" fill-rule="nonzero"/><g clip-path="url(#742d7d2844)"><path fill="#ef8121" d="M 240.128906 199.960938 L 232.230469 123.144531 C 231.597656 117.027344 226.457031 112.402344 220.3125 112.402344 L 148.808594 112.402344 C 142.664062 112.402344 137.523438 117.054688 136.890625 123.144531 L 134.910156 142.269531 C 133.589844 155.105469 145.792969 165.125 158.113281 161.363281 L 164.804688 159.324219 C 172.414062 157 180.914062 160.847656 183.898438 169.289062 C 184.933594 172.21875 184.789062 175.4375 183.871094 178.421875 L 180.914062 188.070312 C 176.835938 201.394531 186.800781 214.863281 200.726562 214.863281 L 226.6875 214.863281 C 234.699219 214.835938 240.960938 207.914062 240.128906 199.960938 Z M 240.128906 199.960938 " fill-opacity="1" fill-rule="nonzero"/></g><path fill="#ffffff" d="M 167.332031 167.539062 L 128.648438 179.339844 C 123.019531 181.0625 122.617188 188.875 128.046875 191.171875 L 137.265625 195.050781 C 142.144531 197.117188 146.050781 200.992188 148.117188 205.902344 L 151.996094 215.121094 C 154.292969 220.550781 162.105469 220.148438 163.828125 214.519531 L 175.628906 175.835938 C 177.210938 170.753906 172.441406 165.988281 167.332031 167.539062 Z M 167.332031 167.539062 " fill-opacity="1" fill-rule="nonzero"/><g fill="#ef8121" fill-opacity="0.4"><g transform="translate(58.686896, 275.5276)"><g><path d="M 2.109375 -47.75 L 15.0625 -47.75 C 18.550781 -47.75 21.082031 -46.894531 22.65625 -45.1875 C 24.226562 -43.488281 25.015625 -40.710938 25.015625 -36.859375 L 25.015625 -34.75 C 25.015625 -30.1875 23.382812 -27.460938 20.125 -26.578125 C 22.125 -26.054688 23.53125 -24.847656 24.34375 -22.953125 C 25.164062 -21.066406 25.578125 -18.566406 25.578125 -15.453125 C 25.578125 -10.378906 24.816406 -6.535156 23.296875 -3.921875 C 21.773438 -1.304688 19.03125 0 15.0625 0 L 2.109375 0 Z M 13.390625 -29.796875 C 14.210938 -29.796875 14.769531 -30.101562 15.0625 -30.71875 C 15.363281 -31.332031 15.515625 -32.191406 15.515625 -33.296875 L 15.515625 -38.078125 C 15.515625 -39.640625 14.828125 -40.421875 13.453125 -40.421875 L 11.453125 -40.421875 L 11.453125 -29.796875 Z M 12.390625 -8.390625 C 14.878906 -8.390625 16.125 -9.578125 16.125 -11.953125 L 16.125 -17.90625 C 16.125 -19.34375 15.910156 -20.429688 15.484375 -21.171875 C 15.054688 -21.921875 14.304688 -22.296875 13.234375 -22.296875 L 11.453125 -22.296875 L 11.453125 -8.453125 Z M 12.390625 -8.390625 "/></g></g></g><g fill="#ef8121" fill-opacity="0.4"><g transform="translate(85.31067, 275.5276)"><g><path d="M 13.78125 0.4375 C 5.664062 0.4375 1.609375 -3.765625 1.609375 -12.171875 L 1.609375 -28.515625 C 1.609375 -32.367188 2.691406 -35.4375 4.859375 -37.71875 C 7.023438 -40 10 -41.140625 13.78125 -41.140625 C 17.5625 -41.140625 20.535156 -40 22.703125 -37.71875 C 24.878906 -35.4375 25.96875 -32.367188 25.96875 -28.515625 L 25.96875 -12.171875 C 25.96875 -3.765625 21.90625 0.4375 13.78125 0.4375 Z M 13.78125 -7.0625 C 14.5625 -7.0625 15.132812 -7.335938 15.5 -7.890625 C 15.875 -8.453125 16.0625 -9.210938 16.0625 -10.171875 L 16.0625 -30.078125 C 16.0625 -32.453125 15.300781 -33.640625 13.78125 -33.640625 C 12.269531 -33.640625 11.515625 -32.453125 11.515625 -30.078125 L 11.515625 -10.171875 C 11.515625 -9.210938 11.695312 -8.453125 12.0625 -7.890625 C 12.4375 -7.335938 13.007812 -7.0625 13.78125 -7.0625 Z M 13.78125 -7.0625 "/></g></g></g><g fill="#ef8121" fill-opacity="0.4"><g transform="translate(112.93492, 275.5276)"><g><path d="M 1.953125 -40.6875 L 11.671875 -40.6875 L 11.671875 -35.53125 C 12.078125 -37.195312 12.78125 -38.546875 13.78125 -39.578125 C 14.78125 -40.617188 16.117188 -41.140625 17.796875 -41.140625 C 20.535156 -41.140625 22.5625 -40.296875 23.875 -38.609375 C 25.1875 -36.921875 25.84375 -34.519531 25.84375 -31.40625 L 25.84375 0 L 16.28125 0 L 16.28125 -30.40625 C 16.28125 -31.300781 16.101562 -32.0625 15.75 -32.6875 C 15.40625 -33.320312 14.863281 -33.640625 14.125 -33.640625 C 13.125 -33.640625 12.460938 -33.179688 12.140625 -32.265625 C 11.828125 -31.359375 11.671875 -30.144531 11.671875 -28.625 L 11.671875 0 L 1.953125 0 Z M 1.953125 -40.6875 "/></g></g></g><g fill="#ef8121" fill-opacity="0.4"><g transform="translate(140.670327, 275.5276)"><g><path d="M 12.890625 5.953125 C 10.003906 5.953125 7.734375 5.71875 6.078125 5.25 C 4.429688 4.789062 2.8125 3.910156 1.21875 2.609375 L 4.5625 -3 C 6.925781 -1.59375 9.28125 -0.890625 11.625 -0.890625 C 13.132812 -0.890625 14.28125 -1.367188 15.0625 -2.328125 C 15.84375 -3.296875 16.234375 -4.613281 16.234375 -6.28125 L 16.234375 -8.5 C 15.453125 -5.726562 13.394531 -4.34375 10.0625 -4.34375 C 7.28125 -4.34375 5.234375 -5.285156 3.921875 -7.171875 C 2.609375 -9.054688 1.953125 -11.578125 1.953125 -14.734375 L 1.953125 -30.015625 C 1.953125 -33.609375 2.550781 -36.359375 3.75 -38.265625 C 4.957031 -40.179688 7.0625 -41.140625 10.0625 -41.140625 C 11.800781 -41.140625 13.179688 -40.703125 14.203125 -39.828125 C 15.222656 -38.960938 15.898438 -37.734375 16.234375 -36.140625 L 16.234375 -40.6875 L 26.1875 -40.6875 L 26.1875 -6.890625 C 26.1875 -2.335938 25.128906 0.9375 23.015625 2.9375 C 20.898438 4.945312 17.523438 5.953125 12.890625 5.953125 Z M 13.953125 -11.671875 C 15.472656 -11.671875 16.234375 -13.039062 16.234375 -15.78125 L 16.234375 -30.296875 C 16.234375 -31.109375 16.007812 -31.882812 15.5625 -32.625 C 15.125 -33.375 14.566406 -33.75 13.890625 -33.75 C 13.046875 -33.75 12.472656 -33.441406 12.171875 -32.828125 C 11.878906 -32.210938 11.734375 -31.367188 11.734375 -30.296875 L 11.734375 -15.78125 C 11.734375 -14.5625 11.878906 -13.570312 12.171875 -12.8125 C 12.472656 -12.050781 13.066406 -11.671875 13.953125 -11.671875 Z M 13.953125 -11.671875 "/></g></g></g><g fill="#ef8121" fill-opacity="0.4"><g transform="translate(168.683642, 275.5276)"><g><path d="M 13.78125 0.4375 C 5.664062 0.4375 1.609375 -3.765625 1.609375 -12.171875 L 1.609375 -28.515625 C 1.609375 -32.367188 2.691406 -35.4375 4.859375 -37.71875 C 7.023438 -40 10 -41.140625 13.78125 -41.140625 C 17.5625 -41.140625 20.535156 -40 22.703125 -37.71875 C 24.878906 -35.4375 25.96875 -32.367188 25.96875 -28.515625 L 25.96875 -12.171875 C 25.96875 -3.765625 21.90625 0.4375 13.78125 0.4375 Z M 13.78125 -7.0625 C 14.5625 -7.0625 15.132812 -7.335938 15.5 -7.890625 C 15.875 -8.453125 16.0625 -9.210938 16.0625 -10.171875 L 16.0625 -30.078125 C 16.0625 -32.453125 15.300781 -33.640625 13.78125 -33.640625 C 12.269531 -33.640625 11.515625 -32.453125 11.515625 -30.078125 L 11.515625 -10.171875 C 11.515625 -9.210938 11.695312 -8.453125 12.0625 -7.890625 C 12.4375 -7.335938 13.007812 -7.0625 13.78125 -7.0625 Z M 13.78125 -7.0625 "/></g></g></g><g fill="#ef8121" fill-opacity="1"><g transform="translate(58.686896, 275.5276)"><g><path d="M 2.109375 -47.75 L 15.0625 -47.75 C 18.550781 -47.75 21.082031 -46.894531 22.65625 -45.1875 C 24.226562 -43.488281 25.015625 -40.710938 25.015625 -36.859375 L 25.015625 -34.75 C 25.015625 -30.1875 23.382812 -27.460938 20.125 -26.578125 C 22.125 -26.054688 23.53125 -24.847656 24.34375 -22.953125 C 25.164062 -21.066406 25.578125 -18.566406 25.578125 -15.453125 C 25.578125 -10.378906 24.816406 -6.535156 23.296875 -3.921875 C 21.773438 -1.304688 19.03125 0 15.0625 0 L 2.109375 0 Z M 13.390625 -29.796875 C 14.210938 -29.796875 14.769531 -30.101562 15.0625 -30.71875 C 15.363281 -31.332031 15.515625 -32.191406 15.515625 -33.296875 L 15.515625 -38.078125 C 15.515625 -39.640625 14.828125 -40.421875 13.453125 -40.421875 L 11.453125 -40.421875 L 11.453125 -29.796875 Z M 12.390625 -8.390625 C 14.878906 -8.390625 16.125 -9.578125 16.125 -11.953125 L 16.125 -17.90625 C 16.125 -19.34375 15.910156 -20.429688 15.484375 -21.171875 C 15.054688 -21.921875 14.304688 -22.296875 13.234375 -22.296875 L 11.453125 -22.296875 L 11.453125 -8.453125 Z M 12.390625 -8.390625 "/></g></g></g><g fill="#ef8121" fill-opacity="1"><g transform="translate(85.31067, 275.5276)"><g><path d="M 13.78125 0.4375 C 5.664062 0.4375 1.609375 -3.765625 1.609375 -12.171875 L 1.609375 -28.515625 C 1.609375 -32.367188 2.691406 -35.4375 4.859375 -37.71875 C 7.023438 -40 10 -41.140625 13.78125 -41.140625 C 17.5625 -41.140625 20.535156 -40 22.703125 -37.71875 C 24.878906 -35.4375 25.96875 -32.367188 25.96875 -28.515625 L 25.96875 -12.171875 C 25.96875 -3.765625 21.90625 0.4375 13.78125 0.4375 Z M 13.78125 -7.0625 C 14.5625 -7.0625 15.132812 -7.335938 15.5 -7.890625 C 15.875 -8.453125 16.0625 -9.210938 16.0625 -10.171875 L 16.0625 -30.078125 C 16.0625 -32.453125 15.300781 -33.640625 13.78125 -33.640625 C 12.269531 -33.640625 11.515625 -32.453125 11.515625 -30.078125 L 11.515625 -10.171875 C 11.515625 -9.210938 11.695312 -8.453125 12.0625 -7.890625 C 12.4375 -7.335938 13.007812 -7.0625 13.78125 -7.0625 Z M 13.78125 -7.0625 "/></g></g></g><g fill="#ef8121" fill-opacity="1"><g transform="translate(112.93492, 275.5276)"><g><path d="M 1.953125 -40.6875 L 11.671875 -40.6875 L 11.671875 -35.53125 C 12.078125 -37.195312 12.78125 -38.546875 13.78125 -39.578125 C 14.78125 -40.617188 16.117188 -41.140625 17.796875 -41.140625 C 20.535156 -41.140625 22.5625 -40.296875 23.875 -38.609375 C 25.1875 -36.921875 25.84375 -34.519531 25.84375 -31.40625 L 25.84375 0 L 16.28125 0 L 16.28125 -30.40625 C 16.28125 -31.300781 16.101562 -32.0625 15.75 -32.6875 C 15.40625 -33.320312 14.863281 -33.640625 14.125 -33.640625 C 13.125 -33.640625 12.460938 -33.179688 12.140625 -32.265625 C 11.828125 -31.359375 11.671875 -30.144531 11.671875 -28.625 L 11.671875 0 L 1.953125 0 Z M 1.953125 -40.6875 "/></g></g></g><g fill="#ef8121" fill-opacity="1"><g transform="translate(140.670327, 275.5276)"><g><path d="M 12.890625 5.953125 C 10.003906 5.953125 7.734375 5.71875 6.078125 5.25 C 4.429688 4.789062 2.8125 3.910156 1.21875 2.609375 L 4.5625 -3 C 6.925781 -1.59375 9.28125 -0.890625 11.625 -0.890625 C 13.132812 -0.890625 14.28125 -1.367188 15.0625 -2.328125 C 15.84375 -3.296875 16.234375 -4.613281 16.234375 -6.28125 L 16.234375 -8.5 C 15.453125 -5.726562 13.394531 -4.34375 10.0625 -4.34375 C 7.28125 -4.34375 5.234375 -5.285156 3.921875 -7.171875 C 2.609375 -9.054688 1.953125 -11.578125 1.953125 -14.734375 L 1.953125 -30.015625 C 1.953125 -33.609375 2.550781 -36.359375 3.75 -38.265625 C 4.957031 -40.179688 7.0625 -41.140625 10.0625 -41.140625 C 11.800781 -41.140625 13.179688 -40.703125 14.203125 -39.828125 C 15.222656 -38.960938 15.898438 -37.734375 16.234375 -36.140625 L 16.234375 -40.6875 L 26.1875 -40.6875 L 26.1875 -6.890625 C 26.1875 -2.335938 25.128906 0.9375 23.015625 2.9375 C 20.898438 4.945312 17.523438 5.953125 12.890625 5.953125 Z M 13.953125 -11.671875 C 15.472656 -11.671875 16.234375 -13.039062 16.234375 -15.78125 L 16.234375 -30.296875 C 16.234375 -31.109375 16.007812 -31.882812 15.5625 -32.625 C 15.125 -33.375 14.566406 -33.75 13.890625 -33.75 C 13.046875 -33.75 12.472656 -33.441406 12.171875 -32.828125 C 11.878906 -32.210938 11.734375 -31.367188 11.734375 -30.296875 L 11.734375 -15.78125 C 11.734375 -14.5625 11.878906 -13.570312 12.171875 -12.8125 C 12.472656 -12.050781 13.066406 -11.671875 13.953125 -11.671875 Z M 13.953125 -11.671875 "/></g></g></g><g fill="#ef8121" fill-opacity="1"><g transform="translate(168.683642, 275.5276)"><g><path d="M 13.78125 0.4375 C 5.664062 0.4375 1.609375 -3.765625 1.609375 -12.171875 L 1.609375 -28.515625 C 1.609375 -32.367188 2.691406 -35.4375 4.859375 -37.71875 C 7.023438 -40 10 -41.140625 13.78125 -41.140625 C 17.5625 -41.140625 20.535156 -40 22.703125 -37.71875 C 24.878906 -35.4375 25.96875 -32.367188 25.96875 -28.515625 L 25.96875 -12.171875 C 25.96875 -3.765625 21.90625 0.4375 13.78125 0.4375 Z M 13.78125 -7.0625 C 14.5625 -7.0625 15.132812 -7.335938 15.5 -7.890625 C 15.875 -8.453125 16.0625 -9.210938 16.0625 -10.171875 L 16.0625 -30.078125 C 16.0625 -32.453125 15.300781 -33.640625 13.78125 -33.640625 C 12.269531 -33.640625 11.515625 -32.453125 11.515625 -30.078125 L 11.515625 -10.171875 C 11.515625 -9.210938 11.695312 -8.453125 12.0625 -7.890625 C 12.4375 -7.335938 13.007812 -7.0625 13.78125 -7.0625 Z M 13.78125 -7.0625 "/></g></g></g><g fill="#ffffff" fill-opacity="1"><g transform="translate(205.550163, 275.5276)"><g><path d="M 2.109375 0 L 2.109375 -47.75 L 16.671875 -47.75 L 20.6875 -18.625 L 24.6875 -47.75 L 39.359375 -47.75 L 39.359375 0 L 30.625 0 L 30.625 -34.40625 L 25.125 0 L 16.5625 0 L 10.734375 -34.40625 L 10.734375 0 Z M 2.109375 0 "/></g></g></g><g fill="#ffffff" fill-opacity="1"><g transform="translate(247.014325, 275.5276)"><g><path d="M 9.34375 0.4375 C 6.1875 0.4375 4.023438 -0.609375 2.859375 -2.703125 C 1.691406 -4.796875 1.109375 -7.785156 1.109375 -11.671875 C 1.109375 -14.859375 1.523438 -17.304688 2.359375 -19.015625 C 3.191406 -20.722656 4.347656 -21.972656 5.828125 -22.765625 C 7.316406 -23.554688 9.582031 -24.4375 12.625 -25.40625 L 15.28125 -26.296875 L 15.28125 -30.46875 C 15.28125 -31.539062 15.066406 -32.363281 14.640625 -32.9375 C 14.222656 -33.507812 13.71875 -33.796875 13.125 -33.796875 C 12.601562 -33.796875 12.144531 -33.554688 11.75 -33.078125 C 11.363281 -32.597656 11.171875 -31.945312 11.171875 -31.125 L 11.171875 -28.6875 L 1.71875 -28.6875 L 1.71875 -30.015625 C 1.71875 -34.023438 2.65625 -36.878906 4.53125 -38.578125 C 6.40625 -40.285156 9.453125 -41.140625 13.671875 -41.140625 C 17.046875 -41.140625 19.789062 -40.257812 21.90625 -38.5 C 24.019531 -36.738281 25.078125 -34.242188 25.078125 -31.015625 L 25.078125 0 L 15.40625 0 L 15.40625 -4.84375 C 14.914062 -3.164062 14.144531 -1.863281 13.09375 -0.9375 C 12.039062 -0.0195312 10.789062 0.4375 9.34375 0.4375 Z M 13.171875 -7.109375 C 13.910156 -7.109375 14.4375 -7.414062 14.75 -8.03125 C 15.070312 -8.644531 15.234375 -9.394531 15.234375 -10.28125 L 15.234375 -21.625 C 13.785156 -21.070312 12.71875 -20.367188 12.03125 -19.515625 C 11.34375 -18.660156 11 -17.472656 11 -15.953125 L 11 -10.734375 C 11 -8.316406 11.722656 -7.109375 13.171875 -7.109375 Z M 13.171875 -7.109375 "/></g></g></g><g fill="#ffffff" fill-opacity="1"><g transform="translate(273.860423, 275.5276)"><g><path d="M 1.953125 -40.6875 L 11.671875 -40.6875 L 11.671875 -36.1875 C 12.148438 -37.78125 12.992188 -39.007812 14.203125 -39.875 C 15.410156 -40.75 16.898438 -41.1875 18.671875 -41.1875 L 18.671875 -33.078125 C 17.304688 -33.078125 15.796875 -32.878906 14.140625 -32.484375 C 12.492188 -32.097656 11.671875 -31.644531 11.671875 -31.125 L 11.671875 0 L 1.953125 0 Z M 1.953125 -40.6875 "/></g></g></g><g fill="#ffffff" fill-opacity="1"><g transform="translate(292.980627, 275.5276)"><g><path d="M 10.34375 0.4375 C 7.78125 0.4375 6.015625 -0.0976562 5.046875 -1.171875 C 4.085938 -2.242188 3.609375 -3.96875 3.609375 -6.34375 L 3.609375 -31.75 L 0.890625 -31.75 L 0.890625 -39.140625 L 3.609375 -39.140625 L 3.609375 -47.75 L 13.0625 -47.75 L 13.0625 -39.140625 L 15.84375 -39.140625 L 15.84375 -31.75 L 13.0625 -31.75 L 13.0625 -8.890625 C 13.0625 -8.191406 13.113281 -7.675781 13.21875 -7.34375 C 13.332031 -7.007812 13.632812 -6.84375 14.125 -6.84375 C 14.488281 -6.84375 14.835938 -6.859375 15.171875 -6.890625 C 15.503906 -6.929688 15.726562 -6.953125 15.84375 -6.953125 L 15.84375 -0.28125 C 15.289062 -0.132812 14.484375 0.0195312 13.421875 0.1875 C 12.367188 0.351562 11.34375 0.4375 10.34375 0.4375 Z M 10.34375 0.4375 "/></g></g></g><g fill="#ffffff" fill-opacity="1"><g transform="translate(72.158738, 299.313964)"><g><path d="M 3.921875 0 L 3.921875 -3.53125 L 0.234375 -9.796875 L 1.671875 -9.796875 L 3.265625 -7.0625 L 4.53125 -4.84375 L 7.421875 -9.796875 L 8.8125 -9.796875 L 5.125 -3.53125 L 5.125 0 Z M 3.921875 0 "/></g></g></g><g fill="#ffffff" fill-opacity="1"><g transform="translate(81.197693, 299.313964)"><g><path d="M 5.875 0.1875 C 4.882812 0.1875 4.003906 -0.03125 3.234375 -0.46875 C 2.472656 -0.90625 1.878906 -1.503906 1.453125 -2.265625 C 1.023438 -3.035156 0.8125 -3.914062 0.8125 -4.90625 C 0.8125 -5.894531 1.023438 -6.769531 1.453125 -7.53125 C 1.878906 -8.300781 2.472656 -8.898438 3.234375 -9.328125 C 4.003906 -9.765625 4.882812 -9.984375 5.875 -9.984375 C 6.875 -9.984375 7.753906 -9.765625 8.515625 -9.328125 C 9.273438 -8.898438 9.875 -8.300781 10.3125 -7.53125 C 10.75 -6.769531 10.96875 -5.894531 10.96875 -4.90625 C 10.96875 -3.914062 10.75 -3.035156 10.3125 -2.265625 C 9.875 -1.503906 9.273438 -0.90625 8.515625 -0.46875 C 7.753906 -0.03125 6.875 0.1875 5.875 0.1875 Z M 2.078125 -4.90625 C 2.078125 -4.144531 2.234375 -3.472656 2.546875 -2.890625 C 2.867188 -2.316406 3.316406 -1.863281 3.890625 -1.53125 C 4.472656 -1.207031 5.132812 -1.046875 5.875 -1.046875 C 6.632812 -1.046875 7.296875 -1.207031 7.859375 -1.53125 C 8.429688 -1.863281 8.878906 -2.316406 9.203125 -2.890625 C 9.523438 -3.472656 9.6875 -4.144531 9.6875 -4.90625 C 9.6875 -5.664062 9.523438 -6.332031 9.203125 -6.90625 C 8.878906 -7.476562 8.429688 -7.925781 7.859375 -8.25 C 7.296875 -8.582031 6.632812 -8.75 5.875 -8.75 C 5.132812 -8.75 4.472656 -8.582031 3.890625 -8.25 C 3.316406 -7.925781 2.867188 -7.476562 2.546875 -6.90625 C 2.234375 -6.332031 2.078125 -5.664062 2.078125 -4.90625 Z M 2.078125 -4.90625 "/></g></g></g><g fill="#ffffff" fill-opacity="1"><g transform="translate(92.95113, 299.313964)"><g><path d="M 5.09375 0.171875 C 3.90625 0.171875 2.976562 -0.195312 2.3125 -0.9375 C 1.644531 -1.675781 1.3125 -2.691406 1.3125 -3.984375 L 1.3125 -9.796875 L 2.53125 -9.796875 L 2.53125 -4.078125 C 2.53125 -3.078125 2.75 -2.316406 3.1875 -1.796875 C 3.625 -1.285156 4.257812 -1.03125 5.09375 -1.03125 C 6.800781 -1.03125 7.65625 -2.046875 7.65625 -4.078125 L 7.65625 -9.796875 L 8.890625 -9.796875 L 8.890625 -3.984375 C 8.890625 -2.691406 8.550781 -1.675781 7.875 -0.9375 C 7.207031 -0.195312 6.28125 0.171875 5.09375 0.171875 Z M 5.09375 0.171875 "/></g></g></g><g fill="#ffffff" fill-opacity="1"><g transform="translate(103.151431, 299.313964)"><g><path d="M 1.421875 0 L 1.421875 -9.796875 L 5.171875 -9.796875 C 5.847656 -9.796875 6.4375 -9.664062 6.9375 -9.40625 C 7.445312 -9.15625 7.84375 -8.796875 8.125 -8.328125 C 8.40625 -7.859375 8.546875 -7.300781 8.546875 -6.65625 C 8.546875 -5.851562 8.335938 -5.191406 7.921875 -4.671875 C 7.515625 -4.160156 6.953125 -3.816406 6.234375 -3.640625 L 8.6875 0 L 7.203125 0 L 4.8125 -3.515625 L 2.65625 -3.515625 L 2.65625 0 Z M 2.65625 -4.6875 L 5.03125 -4.6875 C 5.75 -4.6875 6.300781 -4.859375 6.6875 -5.203125 C 7.082031 -5.546875 7.28125 -6.03125 7.28125 -6.65625 C 7.28125 -7.28125 7.082031 -7.765625 6.6875 -8.109375 C 6.300781 -8.453125 5.75 -8.625 5.03125 -8.625 L 2.65625 -8.625 Z M 2.65625 -4.6875 "/></g></g></g><g fill="#ffffff" fill-opacity="1"><g transform="translate(112.680113, 299.313964)"><g/></g></g><g fill="#ffffff" fill-opacity="1"><g transform="translate(116.150179, 299.313964)"><g><path d="M 3.796875 0 L 3.796875 -8.625 L 0.46875 -8.625 L 0.46875 -9.796875 L 8.328125 -9.796875 L 8.328125 -8.625 L 5.03125 -8.625 L 5.03125 0 Z M 3.796875 0 "/></g></g></g><g fill="#ffffff" fill-opacity="1"><g transform="translate(124.965253, 299.313964)"><g><path d="M 1.421875 0 L 1.421875 -9.796875 L 5.171875 -9.796875 C 5.847656 -9.796875 6.4375 -9.664062 6.9375 -9.40625 C 7.445312 -9.15625 7.84375 -8.796875 8.125 -8.328125 C 8.40625 -7.859375 8.546875 -7.300781 8.546875 -6.65625 C 8.546875 -5.851562 8.335938 -5.191406 7.921875 -4.671875 C 7.515625 -4.160156 6.953125 -3.816406 6.234375 -3.640625 L 8.6875 0 L 7.203125 0 L 4.8125 -3.515625 L 2.65625 -3.515625 L 2.65625 0 Z M 2.65625 -4.6875 L 5.03125 -4.6875 C 5.75 -4.6875 6.300781 -4.859375 6.6875 -5.203125 C 7.082031 -5.546875 7.28125 -6.03125 7.28125 -6.65625 C 7.28125 -7.28125 7.082031 -7.765625 6.6875 -8.109375 C 6.300781 -8.453125 5.75 -8.625 5.03125 -8.625 L 2.65625 -8.625 Z M 2.65625 -4.6875 "/></g></g></g><g fill="#ffffff" fill-opacity="1"><g transform="translate(134.493935, 299.313964)"><g><path d="M 5.09375 0.171875 C 3.90625 0.171875 2.976562 -0.195312 2.3125 -0.9375 C 1.644531 -1.675781 1.3125 -2.691406 1.3125 -3.984375 L 1.3125 -9.796875 L 2.53125 -9.796875 L 2.53125 -4.078125 C 2.53125 -3.078125 2.75 -2.316406 3.1875 -1.796875 C 3.625 -1.285156 4.257812 -1.03125 5.09375 -1.03125 C 6.800781 -1.03125 7.65625 -2.046875 7.65625 -4.078125 L 7.65625 -9.796875 L 8.890625 -9.796875 L 8.890625 -3.984375 C 8.890625 -2.691406 8.550781 -1.675781 7.875 -0.9375 C 7.207031 -0.195312 6.28125 0.171875 5.09375 0.171875 Z M 5.09375 0.171875 "/></g></g></g><g fill="#ffffff" fill-opacity="1"><g transform="translate(144.694237, 299.313964)"><g><path d="M 4.6875 0.1875 C 3.90625 0.1875 3.226562 0.0546875 2.65625 -0.203125 C 2.082031 -0.472656 1.640625 -0.847656 1.328125 -1.328125 C 1.015625 -1.816406 0.851562 -2.378906 0.84375 -3.015625 L 2.078125 -3.015625 C 2.085938 -2.390625 2.332031 -1.894531 2.8125 -1.53125 C 3.300781 -1.175781 3.925781 -1 4.6875 -1 C 5.375 -1 5.921875 -1.132812 6.328125 -1.40625 C 6.734375 -1.675781 6.9375 -2.050781 6.9375 -2.53125 C 6.9375 -2.988281 6.738281 -3.351562 6.34375 -3.625 C 5.957031 -3.90625 5.320312 -4.148438 4.4375 -4.359375 C 3.226562 -4.640625 2.34375 -5.003906 1.78125 -5.453125 C 1.226562 -5.910156 0.953125 -6.519531 0.953125 -7.28125 C 0.953125 -8.113281 1.265625 -8.769531 1.890625 -9.25 C 2.523438 -9.738281 3.378906 -9.984375 4.453125 -9.984375 C 5.554688 -9.984375 6.425781 -9.707031 7.0625 -9.15625 C 7.695312 -8.601562 8.019531 -7.851562 8.03125 -6.90625 L 6.8125 -6.90625 C 6.800781 -7.488281 6.582031 -7.953125 6.15625 -8.296875 C 5.738281 -8.640625 5.171875 -8.8125 4.453125 -8.8125 C 3.753906 -8.8125 3.207031 -8.671875 2.8125 -8.390625 C 2.414062 -8.117188 2.21875 -7.75 2.21875 -7.28125 C 2.21875 -6.875 2.398438 -6.535156 2.765625 -6.265625 C 3.128906 -5.992188 3.789062 -5.738281 4.75 -5.5 C 6 -5.195312 6.890625 -4.8125 7.421875 -4.34375 C 7.953125 -3.882812 8.21875 -3.296875 8.21875 -2.578125 C 8.21875 -1.722656 7.894531 -1.046875 7.25 -0.546875 C 6.613281 -0.0546875 5.757812 0.1875 4.6875 0.1875 Z M 4.6875 0.1875 "/></g></g></g><g fill="#ffffff" fill-opacity="1"><g transform="translate(153.747188, 299.313964)"><g><path d="M 3.796875 0 L 3.796875 -8.625 L 0.46875 -8.625 L 0.46875 -9.796875 L 8.328125 -9.796875 L 8.328125 -8.625 L 5.03125 -8.625 L 5.03125 0 Z M 3.796875 0 "/></g></g></g><g fill="#ffffff" fill-opacity="1"><g transform="translate(162.562262, 299.313964)"><g><path d="M 1.421875 0 L 1.421875 -9.796875 L 7.375 -9.796875 L 7.375 -8.65625 L 2.65625 -8.65625 L 2.65625 -5.5625 L 7.03125 -5.5625 L 7.03125 -4.421875 L 2.65625 -4.421875 L 2.65625 -1.140625 L 7.53125 -1.140625 L 7.53125 0 Z M 1.421875 0 "/></g></g></g><g fill="#ffffff" fill-opacity="1"><g transform="translate(170.999556, 299.313964)"><g><path d="M 1.421875 0 L 1.421875 -9.796875 L 4.8125 -9.796875 C 5.820312 -9.796875 6.703125 -9.585938 7.453125 -9.171875 C 8.203125 -8.753906 8.785156 -8.179688 9.203125 -7.453125 C 9.628906 -6.722656 9.84375 -5.875 9.84375 -4.90625 C 9.84375 -3.9375 9.628906 -3.082031 9.203125 -2.34375 C 8.785156 -1.613281 8.203125 -1.039062 7.453125 -0.625 C 6.703125 -0.207031 5.820312 0 4.8125 0 Z M 2.65625 -1.171875 L 4.8125 -1.171875 C 5.5625 -1.171875 6.21875 -1.328125 6.78125 -1.640625 C 7.34375 -1.953125 7.78125 -2.390625 8.09375 -2.953125 C 8.414062 -3.515625 8.578125 -4.164062 8.578125 -4.90625 C 8.578125 -5.644531 8.414062 -6.289062 8.09375 -6.84375 C 7.769531 -7.40625 7.320312 -7.84375 6.75 -8.15625 C 6.1875 -8.46875 5.523438 -8.625 4.765625 -8.625 L 2.65625 -8.625 Z M 2.65625 -1.171875 "/></g></g></g><g fill="#ffffff" fill-opacity="1"><g transform="translate(181.647607, 299.313964)"><g/></g></g><g fill="#ffffff" fill-opacity="1"><g transform="translate(185.117673, 299.313964)"><g><path d="M 1.421875 0 L 1.421875 -9.796875 L 2.578125 -9.796875 L 6.421875 -3.984375 L 10.25 -9.796875 L 11.390625 -9.796875 L 11.390625 0 L 10.15625 0 L 10.15625 -7.484375 L 6.921875 -2.609375 L 5.90625 -2.609375 L 2.65625 -7.5 L 2.65625 0 Z M 1.421875 0 "/></g></g></g><g fill="#ffffff" fill-opacity="1"><g transform="translate(197.934518, 299.313964)"><g><path d="M 4.6875 0.1875 C 3.90625 0.1875 3.226562 0.0546875 2.65625 -0.203125 C 2.082031 -0.472656 1.640625 -0.847656 1.328125 -1.328125 C 1.015625 -1.816406 0.851562 -2.378906 0.84375 -3.015625 L 2.078125 -3.015625 C 2.085938 -2.390625 2.332031 -1.894531 2.8125 -1.53125 C 3.300781 -1.175781 3.925781 -1 4.6875 -1 C 5.375 -1 5.921875 -1.132812 6.328125 -1.40625 C 6.734375 -1.675781 6.9375 -2.050781 6.9375 -2.53125 C 6.9375 -2.988281 6.738281 -3.351562 6.34375 -3.625 C 5.957031 -3.90625 5.320312 -4.148438 4.4375 -4.359375 C 3.226562 -4.640625 2.34375 -5.003906 1.78125 -5.453125 C 1.226562 -5.910156 0.953125 -6.519531 0.953125 -7.28125 C 0.953125 -8.113281 1.265625 -8.769531 1.890625 -9.25 C 2.523438 -9.738281 3.378906 -9.984375 4.453125 -9.984375 C 5.554688 -9.984375 6.425781 -9.707031 7.0625 -9.15625 C 7.695312 -8.601562 8.019531 -7.851562 8.03125 -6.90625 L 6.8125 -6.90625 C 6.800781 -7.488281 6.582031 -7.953125 6.15625 -8.296875 C 5.738281 -8.640625 5.171875 -8.8125 4.453125 -8.8125 C 3.753906 -8.8125 3.207031 -8.671875 2.8125 -8.390625 C 2.414062 -8.117188 2.21875 -7.75 2.21875 -7.28125 C 2.21875 -6.875 2.398438 -6.535156 2.765625 -6.265625 C 3.128906 -5.992188 3.789062 -5.738281 4.75 -5.5 C 6 -5.195312 6.890625 -4.8125 7.421875 -4.34375 C 7.953125 -3.882812 8.21875 -3.296875 8.21875 -2.578125 C 8.21875 -1.722656 7.894531 -1.046875 7.25 -0.546875 C 6.613281 -0.0546875 5.757812 0.1875 4.6875 0.1875 Z M 4.6875 0.1875 "/></g></g></g><g fill="#ffffff" fill-opacity="1"><g transform="translate(206.987469, 299.313964)"><g><path d="M 0.234375 0 L 4.265625 -9.796875 L 5.421875 -9.796875 L 9.453125 0 L 8.140625 0 L 7.21875 -2.21875 L 2.453125 -2.21875 L 1.546875 0 Z M 2.921875 -3.375 L 6.765625 -3.375 L 4.84375 -8.078125 Z M 2.921875 -3.375 "/></g></g></g><g fill="#ffffff" fill-opacity="1"><g transform="translate(216.670062, 299.313964)"><g><path d="M 1.421875 0 L 1.421875 -9.796875 L 5.171875 -9.796875 C 5.847656 -9.796875 6.4375 -9.664062 6.9375 -9.40625 C 7.445312 -9.15625 7.84375 -8.796875 8.125 -8.328125 C 8.40625 -7.859375 8.546875 -7.300781 8.546875 -6.65625 C 8.546875 -5.851562 8.335938 -5.191406 7.921875 -4.671875 C 7.515625 -4.160156 6.953125 -3.816406 6.234375 -3.640625 L 8.6875 0 L 7.203125 0 L 4.8125 -3.515625 L 2.65625 -3.515625 L 2.65625 0 Z M 2.65625 -4.6875 L 5.03125 -4.6875 C 5.75 -4.6875 6.300781 -4.859375 6.6875 -5.203125 C 7.082031 -5.546875 7.28125 -6.03125 7.28125 -6.65625 C 7.28125 -7.28125 7.082031 -7.765625 6.6875 -8.109375 C 6.300781 -8.453125 5.75 -8.625 5.03125 -8.625 L 2.65625 -8.625 Z M 2.65625 -4.6875 "/></g></g></g><g fill="#ffffff" fill-opacity="1"><g transform="translate(226.198744, 299.313964)"><g><path d="M 1.421875 0 L 1.421875 -9.796875 L 2.65625 -9.796875 L 2.65625 -5.59375 L 4.0625 -5.59375 C 4.71875 -5.59375 5.210938 -5.707031 5.546875 -5.9375 C 5.890625 -6.175781 6.160156 -6.5625 6.359375 -7.09375 L 7.359375 -9.796875 L 8.671875 -9.796875 L 7.46875 -6.609375 C 7.320312 -6.234375 7.148438 -5.90625 6.953125 -5.625 C 6.753906 -5.351562 6.515625 -5.125 6.234375 -4.9375 L 9.046875 0 L 7.609375 0 L 5.078125 -4.5 C 4.773438 -4.4375 4.4375 -4.40625 4.0625 -4.40625 L 2.65625 -4.40625 L 2.65625 0 Z M 1.421875 0 "/></g></g></g><g fill="#ffffff" fill-opacity="1"><g transform="translate(235.769403, 299.313964)"><g><path d="M 1.421875 0 L 1.421875 -9.796875 L 7.375 -9.796875 L 7.375 -8.65625 L 2.65625 -8.65625 L 2.65625 -5.5625 L 7.03125 -5.5625 L 7.03125 -4.421875 L 2.65625 -4.421875 L 2.65625 -1.140625 L 7.53125 -1.140625 L 7.53125 0 Z M 1.421875 0 "/></g></g></g><g fill="#ffffff" fill-opacity="1"><g transform="translate(244.206697, 299.313964)"><g><path d="M 3.796875 0 L 3.796875 -8.625 L 0.46875 -8.625 L 0.46875 -9.796875 L 8.328125 -9.796875 L 8.328125 -8.625 L 5.03125 -8.625 L 5.03125 0 Z M 3.796875 0 "/></g></g></g><g fill="#ffffff" fill-opacity="1"><g transform="translate(253.021771, 299.313964)"><g><path d="M 1.421875 0 L 1.421875 -9.796875 L 4.75 -9.796875 C 5.488281 -9.796875 6.128906 -9.660156 6.671875 -9.390625 C 7.210938 -9.117188 7.632812 -8.738281 7.9375 -8.25 C 8.238281 -7.757812 8.390625 -7.179688 8.390625 -6.515625 C 8.390625 -5.835938 8.238281 -5.253906 7.9375 -4.765625 C 7.632812 -4.273438 7.210938 -3.894531 6.671875 -3.625 C 6.128906 -3.351562 5.488281 -3.21875 4.75 -3.21875 L 2.65625 -3.21875 L 2.65625 0 Z M 2.65625 -4.375 L 4.71875 -4.375 C 6.320312 -4.375 7.125 -5.082031 7.125 -6.5 C 7.125 -7.914062 6.320312 -8.625 4.71875 -8.625 L 2.65625 -8.625 Z M 2.65625 -4.375 "/></g></g></g><g fill="#ffffff" fill-opacity="1"><g transform="translate(261.962776, 299.313964)"><g><path d="M 1.421875 0 L 1.421875 -9.796875 L 2.65625 -9.796875 L 2.65625 -1.171875 L 7.421875 -1.171875 L 7.421875 0 Z M 1.421875 0 "/></g></g></g><g fill="#ffffff" fill-opacity="1"><g transform="translate(269.812381, 299.313964)"><g><path d="M 0.234375 0 L 4.265625 -9.796875 L 5.421875 -9.796875 L 9.453125 0 L 8.140625 0 L 7.21875 -2.21875 L 2.453125 -2.21875 L 1.546875 0 Z M 2.921875 -3.375 L 6.765625 -3.375 L 4.84375 -8.078125 Z M 2.921875 -3.375 "/></g></g></g><g fill="#ffffff" fill-opacity="1"><g transform="translate(279.494975, 299.313964)"><g><path d="M 5.765625 0.1875 C 5.046875 0.1875 4.382812 0.0625 3.78125 -0.1875 C 3.175781 -0.445312 2.648438 -0.800781 2.203125 -1.25 C 1.765625 -1.707031 1.421875 -2.242188 1.171875 -2.859375 C 0.929688 -3.484375 0.8125 -4.164062 0.8125 -4.90625 C 0.8125 -5.632812 0.929688 -6.3125 1.171875 -6.9375 C 1.421875 -7.5625 1.765625 -8.097656 2.203125 -8.546875 C 2.648438 -8.992188 3.175781 -9.34375 3.78125 -9.59375 C 4.382812 -9.851562 5.046875 -9.984375 5.765625 -9.984375 C 6.546875 -9.984375 7.257812 -9.835938 7.90625 -9.546875 C 8.550781 -9.265625 9.101562 -8.859375 9.5625 -8.328125 C 10.03125 -7.804688 10.367188 -7.1875 10.578125 -6.46875 L 9.265625 -6.46875 C 9.015625 -7.175781 8.578125 -7.734375 7.953125 -8.140625 C 7.335938 -8.546875 6.625 -8.75 5.8125 -8.75 C 5.082031 -8.75 4.4375 -8.582031 3.875 -8.25 C 3.3125 -7.925781 2.867188 -7.472656 2.546875 -6.890625 C 2.234375 -6.316406 2.078125 -5.65625 2.078125 -4.90625 C 2.078125 -4.144531 2.234375 -3.472656 2.546875 -2.890625 C 2.867188 -2.316406 3.3125 -1.863281 3.875 -1.53125 C 4.4375 -1.207031 5.082031 -1.046875 5.8125 -1.046875 C 6.644531 -1.046875 7.378906 -1.257812 8.015625 -1.6875 C 8.660156 -2.125 9.109375 -2.707031 9.359375 -3.4375 L 10.671875 -3.4375 C 10.472656 -2.71875 10.132812 -2.085938 9.65625 -1.546875 C 9.1875 -1.003906 8.617188 -0.578125 7.953125 -0.265625 C 7.285156 0.0351562 6.554688 0.1875 5.765625 0.1875 Z M 5.765625 0.1875 "/></g></g></g><g fill="#ffffff" fill-opacity="1"><g transform="translate(290.912607, 299.313964)"><g><path d="M 1.421875 0 L 1.421875 -9.796875 L 7.375 -9.796875 L 7.375 -8.65625 L 2.65625 -8.65625 L 2.65625 -5.5625 L 7.03125 -5.5625 L 7.03125 -4.421875 L 2.65625 -4.421875 L 2.65625 -1.140625 L 7.53125 -1.140625 L 7.53125 0 Z M 1.421875 0 "/></g></g></g><g fill="#ffffff" fill-opacity="1"><g transform="translate(299.350133, 299.313964)"><g/></g></g></svg>